<svg width="22" height="22" viewBox="0 0 22 22" fill="none" xmlns="http://www.w3.org/2000/svg">
<path d="M17.8255 1.56885C19.2432 1.56885 20.3924 2.71806 20.3924 4.13569V17.8255C20.3924 19.2432 19.2432 20.3924 17.8255 20.3924H13.9807V13.2379H15.298C16.3307 13.2379 16.6158 13.2324 16.6244 13.2128C16.6329 13.1895 16.6932 12.7497 16.8362 11.6645C16.897 11.2032 17.0157 10.2914 17.0242 10.2215C17.0291 10.1818 17.0159 10.1815 15.5052 10.1764L13.9807 10.171L13.9811 9.20421C13.9813 8.67255 13.99 8.13624 14.0003 8.01228C14.0347 7.60112 14.1569 7.273 14.3458 7.08606C14.4465 6.98647 14.6383 6.88463 14.8012 6.84417C14.8569 6.83034 14.9388 6.81012 14.9834 6.79905C15.0288 6.78774 15.5183 6.77337 16.0976 6.76646L17.1308 6.75392L17.1412 4.04336L17.0752 4.03041C16.6197 3.94025 14.7297 3.8869 14.1608 3.94811C13.5005 4.01916 12.9135 4.22147 12.4032 4.55389C12.0918 4.75675 11.6601 5.17813 11.4636 5.47134C11.2181 5.83751 11.012 6.32974 10.9221 6.76437C10.8155 7.27973 10.8151 7.28966 10.8064 8.77306L10.798 10.171L8.15725 10.1814V13.2279L10.8005 13.2379V20.3924H4.13569C2.71806 20.3924 1.56885 19.2432 1.56885 17.8255V4.13569C1.56885 2.71806 2.71806 1.56885 4.13569 1.56885H17.8255Z" fill="#7E7F8A"/>
</svg>
