<svg width="24" height="24" viewBox="0 0 24 24" fill="none" xmlns="http://www.w3.org/2000/svg">
<g clip-path="url(#clip0_257_5039)">
<path d="M12.0039 0C6.99403 0 5.52882 0.00517032 5.24402 0.0287999C4.21591 0.114284 3.57616 0.276208 2.87917 0.623305C2.34205 0.890106 1.91843 1.19936 1.50035 1.63287C0.73896 2.42346 0.277507 3.3961 0.110458 4.55226C0.0292467 5.11354 0.00561688 5.228 0.000818394 8.09496C-0.00102299 9.05061 0.000818394 10.3083 0.000818394 11.9953C0.000818394 17.0025 0.00635159 18.4666 0.0303531 18.7509C0.113415 19.7516 0.270305 20.3812 0.602552 21.0699C1.23751 22.3882 2.4502 23.3778 3.87886 23.7471C4.37354 23.8744 4.9199 23.9446 5.6213 23.9778C5.91848 23.9908 8.94744 24 11.9783 24C15.0091 24 18.0399 23.9963 18.3297 23.9815C19.1418 23.9433 19.6134 23.88 20.1349 23.7452C21.5728 23.3741 22.7633 22.3992 23.4112 21.0625C23.737 20.3905 23.9022 19.7369 23.9769 18.7884C23.9932 18.5816 24 15.2847 24 11.9922C24 8.69907 23.9926 5.40821 23.9764 5.20142C23.9007 4.23765 23.7355 3.5896 23.3992 2.90461C23.1232 2.34388 22.8168 1.92514 22.372 1.49699C21.5781 0.738523 20.6072 0.276943 19.4503 0.110039C18.8897 0.0289815 18.778 0.00497991 15.9096 0H12.0039Z" fill="url(#paint0_radial_257_5039)"/>
<path d="M12.0039 0C6.99403 0 5.52882 0.00517032 5.24402 0.0287999C4.21591 0.114284 3.57616 0.276208 2.87917 0.623305C2.34205 0.890106 1.91843 1.19936 1.50035 1.63287C0.73896 2.42346 0.277507 3.3961 0.110458 4.55226C0.0292467 5.11354 0.00561688 5.228 0.000818394 8.09496C-0.00102299 9.05061 0.000818394 10.3083 0.000818394 11.9953C0.000818394 17.0025 0.00635159 18.4666 0.0303531 18.7509C0.113415 19.7516 0.270305 20.3812 0.602552 21.0699C1.23751 22.3882 2.4502 23.3778 3.87886 23.7471C4.37354 23.8744 4.9199 23.9446 5.6213 23.9778C5.91848 23.9908 8.94744 24 11.9783 24C15.0091 24 18.0399 23.9963 18.3297 23.9815C19.1418 23.9433 19.6134 23.88 20.1349 23.7452C21.5728 23.3741 22.7633 22.3992 23.4112 21.0625C23.737 20.3905 23.9022 19.7369 23.9769 18.7884C23.9932 18.5816 24 15.2847 24 11.9922C24 8.69907 23.9926 5.40821 23.9764 5.20142C23.9007 4.23765 23.7355 3.5896 23.3992 2.90461C23.1232 2.34388 22.8168 1.92514 22.372 1.49699C21.5781 0.738523 20.6072 0.276943 19.4503 0.110039C18.8897 0.0289815 18.778 0.00497991 15.9096 0H12.0039Z" fill="url(#paint1_radial_257_5039)"/>
<path d="M12.0039 0C6.99403 0 5.52882 0.00517032 5.24402 0.0287999C4.21591 0.114284 3.57616 0.276208 2.87917 0.623305C2.34205 0.890106 1.91843 1.19936 1.50035 1.63287C0.73896 2.42346 0.277507 3.3961 0.110458 4.55226C0.0292467 5.11354 0.00561688 5.228 0.000818394 8.09496C-0.00102299 9.05061 0.000818394 10.3083 0.000818394 11.9953C0.000818394 17.0025 0.00635159 18.4666 0.0303531 18.7509C0.113415 19.7516 0.270305 20.3812 0.602552 21.0699C1.23751 22.3882 2.4502 23.3778 3.87886 23.7471C4.37354 23.8744 4.9199 23.9446 5.6213 23.9778C5.91848 23.9908 8.94744 24 11.9783 24C15.0091 24 18.0399 23.9963 18.3297 23.9815C19.1418 23.9433 19.6134 23.88 20.1349 23.7452C21.5728 23.3741 22.7633 22.3992 23.4112 21.0625C23.737 20.3905 23.9022 19.7369 23.9769 18.7884C23.9932 18.5816 24 15.2847 24 11.9922C24 8.69907 23.9926 5.40821 23.9764 5.20142C23.9007 4.23765 23.7355 3.5896 23.3992 2.90461C23.1232 2.34388 22.8168 1.92514 22.372 1.49699C21.5781 0.738523 20.6072 0.276943 19.4503 0.110039C18.8897 0.0289815 18.778 0.00497991 15.9096 0H12.0039Z" fill="url(#paint2_radial_257_5039)"/>
<path d="M12.0039 0C6.99403 0 5.52882 0.00517032 5.24402 0.0287999C4.21591 0.114284 3.57616 0.276208 2.87917 0.623305C2.34205 0.890106 1.91843 1.19936 1.50035 1.63287C0.73896 2.42346 0.277507 3.3961 0.110458 4.55226C0.0292467 5.11354 0.00561688 5.228 0.000818394 8.09496C-0.00102299 9.05061 0.000818394 10.3083 0.000818394 11.9953C0.000818394 17.0025 0.00635159 18.4666 0.0303531 18.7509C0.113415 19.7516 0.270305 20.3812 0.602552 21.0699C1.23751 22.3882 2.4502 23.3778 3.87886 23.7471C4.37354 23.8744 4.9199 23.9446 5.6213 23.9778C5.91848 23.9908 8.94744 24 11.9783 24C15.0091 24 18.0399 23.9963 18.3297 23.9815C19.1418 23.9433 19.6134 23.88 20.1349 23.7452C21.5728 23.3741 22.7633 22.3992 23.4112 21.0625C23.737 20.3905 23.9022 19.7369 23.9769 18.7884C23.9932 18.5816 24 15.2847 24 11.9922C24 8.69907 23.9926 5.40821 23.9764 5.20142C23.9007 4.23765 23.7355 3.5896 23.3992 2.90461C23.1232 2.34388 22.8168 1.92514 22.372 1.49699C21.5781 0.738523 20.6072 0.276943 19.4503 0.110039C18.8897 0.0289815 18.778 0.00497991 15.9096 0H12.0039Z" fill="#656565"/>
<path d="M12.0052 3.08179C9.58174 3.08179 9.2776 3.09237 8.32577 3.13566C7.3758 3.17913 6.72737 3.32941 6.15999 3.54993C5.57309 3.77767 5.07524 4.08232 4.57925 4.57813C4.0829 5.07376 3.77801 5.57123 3.54935 6.15751C3.32812 6.72466 3.17753 7.37279 3.13478 8.32168C3.09221 9.2728 3.08105 9.5769 3.08105 11.9985C3.08105 14.4202 3.09184 14.7232 3.13496 15.6743C3.17866 16.6235 3.32905 17.2715 3.54953 17.8385C3.77763 18.4249 4.08251 18.9224 4.57869 19.418C5.0745 19.914 5.57235 20.2194 6.15887 20.4472C6.72662 20.6677 7.37525 20.818 8.32502 20.8614C9.27686 20.9047 9.5808 20.9153 12.0041 20.9153C14.4277 20.9153 14.7309 20.9047 15.6827 20.8614C16.6327 20.818 17.2819 20.6677 17.8496 20.4472C18.4363 20.2194 18.9334 19.914 19.4292 19.418C19.9256 18.9224 20.2305 18.4249 20.4592 17.8386C20.6785 17.2715 20.8291 16.6234 20.8737 15.6745C20.9165 14.7234 20.9276 14.4202 20.9276 11.9985C20.9276 9.57689 20.9165 9.27299 20.8737 8.32186C20.8291 7.3726 20.6785 6.72466 20.4592 6.1577C20.2305 5.57123 19.9256 5.07375 19.4292 4.57813C18.9329 4.08213 18.4365 3.77748 17.8491 3.54992C17.2802 3.32941 16.6314 3.17913 15.6814 3.13566C14.7296 3.09237 14.4266 3.08179 12.0024 3.08179H12.0052ZM11.2047 4.68866C11.4423 4.68829 11.7074 4.68866 12.0052 4.68866C14.3877 4.68866 14.6701 4.69721 15.611 4.73993C16.481 4.77969 16.9532 4.92495 17.2677 5.047C17.6842 5.20862 17.9811 5.40182 18.2932 5.7139C18.6055 6.02599 18.7988 6.32322 18.961 6.73932C19.0831 7.05327 19.2286 7.52512 19.2682 8.3945C19.311 9.33447 19.3203 9.61684 19.3203 11.9965C19.3203 14.3762 19.311 14.6585 19.2682 15.5985C19.2285 16.4679 19.0831 16.9397 18.961 17.2537C18.7992 17.6698 18.6055 17.9661 18.2932 18.278C17.9809 18.5901 17.6843 18.7833 17.2677 18.9449C16.9536 19.0675 16.481 19.2124 15.611 19.2521C14.6703 19.2949 14.3877 19.3041 12.0052 19.3041C9.62245 19.3041 9.34006 19.2949 8.39939 19.2521C7.52936 19.212 7.05717 19.0667 6.74243 18.9447C6.326 18.7831 6.02855 18.5899 5.71624 18.2778C5.40392 17.9657 5.21059 17.6692 5.04847 17.2529C4.92633 16.939 4.78077 16.4671 4.74118 15.5978C4.69842 14.6578 4.68986 14.3754 4.68986 11.9943C4.68986 9.61313 4.69842 9.33224 4.74118 8.39227C4.78096 7.52288 4.92633 7.05104 5.04847 6.73673C5.2102 6.32061 5.40392 6.02339 5.71624 5.7113C6.02855 5.39921 6.326 5.20602 6.74243 5.04403C7.05698 4.92142 7.52936 4.77653 8.39939 4.73659C9.22257 4.69943 9.54158 4.68829 11.2047 4.68642L11.2047 4.68866ZM16.7684 6.16921C16.1772 6.16921 15.6976 6.64793 15.6976 7.23885C15.6976 7.82959 16.1772 8.30887 16.7684 8.30887C17.3596 8.30887 17.8392 7.82959 17.8392 7.23885C17.8392 6.64812 17.3596 6.16885 16.7684 6.16885L16.7684 6.16921ZM12.0052 7.41941C9.47447 7.41941 7.42265 9.46971 7.42265 11.9985C7.42265 14.5274 9.47447 16.5767 12.0052 16.5767C14.5359 16.5767 16.587 14.5274 16.587 11.9985C16.587 9.46971 14.5357 7.41941 12.005 7.41941H12.0052ZM12.0052 9.02629C13.6478 9.02629 14.9796 10.3569 14.9796 11.9985C14.9796 13.64 13.6478 14.9708 12.0052 14.9708C10.3623 14.9708 9.03072 13.64 9.03072 11.9985C9.03072 10.3569 10.3623 9.02629 12.0052 9.02629Z" fill="white"/>
</g>
<defs>
<radialGradient id="paint0_radial_257_5039" cx="0" cy="0" r="1" gradientTransform="matrix(-14.7589 4.16236 -2.99883 -10.6331 23.225 11.2491)" gradientUnits="userSpaceOnUse">
<stop stop-color="#FF005F"/>
<stop offset="1" stop-color="#FC01D8"/>
</radialGradient>
<radialGradient id="paint1_radial_257_5039" cx="0" cy="0" r="1" gradientUnits="userSpaceOnUse" gradientTransform="translate(6.37482 25.8485) rotate(-90) scale(19.1572 20.3254)">
<stop stop-color="#FFCC00"/>
<stop offset="0.1242" stop-color="#FFCC00"/>
<stop offset="0.5672" stop-color="#FE4A05"/>
<stop offset="0.6942" stop-color="#FF0F3F"/>
<stop offset="1" stop-color="#FE0657" stop-opacity="0"/>
</radialGradient>
<radialGradient id="paint2_radial_257_5039" cx="0" cy="0" r="1" gradientTransform="matrix(3.97636 -6.8514 8.91974 5.1768 12.6065 23.6615)" gradientUnits="userSpaceOnUse">
<stop stop-color="#FFCC00"/>
<stop offset="1" stop-color="#FFCC00" stop-opacity="0"/>
</radialGradient>
<clipPath id="clip0_257_5039">
<rect width="24" height="24" fill="white"/>
</clipPath>
</defs>
</svg>
