<svg width="20" height="20" viewBox="0 0 20 20" fill="none" xmlns="http://www.w3.org/2000/svg">
<path d="M12.1246 5.68457H7.88013C6.67124 5.68457 5.68457 6.66679 5.68457 7.88013V12.1246C5.68457 13.3335 6.66679 14.3201 7.88013 14.3201H12.1246C13.3335 14.3201 14.3201 13.3379 14.3201 12.1246V7.88013C14.3157 6.66679 13.3335 5.68457 12.1246 5.68457ZM10.0001 12.8401C8.43568 12.8401 7.16013 11.5646 7.16013 10.0001C7.16013 8.43568 8.43568 7.16013 10.0001 7.16013C11.5646 7.16013 12.8401 8.43568 12.8401 10.0001C12.8401 11.5646 11.5646 12.8401 10.0001 12.8401ZM12.9823 7.47568C12.7157 7.47568 12.5023 7.26235 12.5023 6.99568C12.5023 6.72901 12.7157 6.51568 12.9823 6.51568C13.249 6.51568 13.4623 6.72901 13.4623 6.99568C13.4623 7.26235 13.249 7.47568 12.9823 7.47568Z" fill="#7E7F8A"/>
<path d="M11.7262 10.0213C11.7377 9.069 10.975 8.2877 10.0227 8.27623C9.07037 8.26476 8.28907 9.02747 8.2776 9.97978C8.26613 10.9321 9.02884 11.7134 9.98116 11.7249C10.9335 11.7363 11.7148 10.9736 11.7262 10.0213Z" fill="#7E7F8A"/>
<path d="M10 0C4.47556 0 0 4.47556 0 10C0 15.5244 4.47556 20 10 20C15.5244 20 20 15.5244 20 10C20 4.47556 15.5244 0 10 0ZM15.5556 12.1244C15.5556 14.0178 14.0178 15.5556 12.1244 15.5556H7.88C5.98667 15.5556 4.44889 14.0178 4.44889 12.1244V7.88C4.44889 5.98667 5.98667 4.44889 7.88 4.44889H12.1244C14.0178 4.44889 15.5556 5.98667 15.5556 7.88V12.1244Z" fill="#7E7F8A"/>
</svg>
