<svg width="136" height="42" viewBox="0 0 136 42" fill="none" xmlns="http://www.w3.org/2000/svg">
<g clip-path="url(#clip0_1_689)">
<g clip-path="url(#clip1_1_689)">
<g clip-path="url(#clip2_1_689)">
<path d="M62.1975 35.7073C60.3775 35.7073 58.6616 35.3831 57.0496 34.7346C55.4638 34.0604 54.0859 33.1138 52.9159 31.895C51.7719 30.676 50.9139 29.2367 50.3419 27.577L55.2948 25.3596C56.0227 26.9415 57.0236 28.1864 58.2977 29.094C59.5976 30.0017 61.0275 30.4557 62.5875 30.4557C63.4194 30.4557 64.1344 30.3259 64.7324 30.0667C65.3304 29.8072 65.7984 29.4572 66.1363 29.0163C66.4743 28.5495 66.6433 28.005 66.6433 27.3825C66.6433 26.7081 66.4353 26.1377 66.0194 25.6709C65.6034 25.1782 64.9534 24.789 64.0695 24.5038L58.3757 22.6365C56.0617 21.8846 54.3198 20.8212 53.1499 19.4468C51.9799 18.0463 51.395 16.3737 51.395 14.4286C51.395 12.717 51.811 11.2128 52.6429 9.91613C53.5008 8.61943 54.6837 7.60802 56.1917 6.88188C57.7257 6.15575 59.4806 5.79267 61.4566 5.79267C63.1984 5.79267 64.8104 6.0909 66.2924 6.68738C67.7743 7.28385 69.0482 8.12669 70.1142 9.21591C71.2061 10.3051 72.0251 11.6148 72.5711 13.1449L67.6572 15.3622C67.1112 14.0137 66.2924 12.9633 65.2004 12.2113C64.1084 11.4333 62.8605 11.0442 61.4566 11.0442C60.6505 11.0442 59.9355 11.1739 59.3117 11.4333C58.6876 11.6926 58.2067 12.0686 57.8686 12.5614C57.5307 13.0282 57.3617 13.5728 57.3617 14.1952C57.3617 14.8695 57.5827 15.4659 58.0247 15.9846C58.4667 16.4774 59.1296 16.8664 60.0135 17.1517L65.5903 18.941C67.9302 19.6932 69.6723 20.7435 70.8161 22.092C71.9861 23.4405 72.5711 25.0874 72.5711 27.0323C72.5711 28.718 72.1291 30.2222 71.2452 31.5449C70.3612 32.8416 69.1392 33.8659 67.5792 34.618C66.0454 35.3441 64.2513 35.7073 62.1975 35.7073Z" fill="white"/>
<path d="M86.7074 35.4738C84.1334 35.4738 82.1315 34.7865 80.7016 33.4121C79.2976 32.0116 78.5957 30.0667 78.5957 27.577V19.0578H75.0078V14.0007H75.2028C76.2948 14.0007 78.5957 14.0007 78.5957 14.0007C78.5957 14.0007 78.5957 11.8223 78.5957 10.733V9.17702H84.4455V14.0007H89.4372V19.0578H84.4455V27.1881C84.4455 27.9142 84.5754 28.5235 84.8355 29.0163C85.0954 29.483 85.4984 29.8332 86.0444 30.0667C86.5904 30.3001 87.2663 30.4167 88.0724 30.4167C88.2543 30.4167 88.4624 30.4038 88.6963 30.3778C88.9303 30.3519 89.1773 30.3259 89.4372 30.3001V35.2404C89.0473 35.2923 88.6053 35.3441 88.1113 35.396C87.6173 35.4478 87.1494 35.4738 86.7074 35.4738Z" fill="white"/>
<path d="M99.4565 35.7073C97.9225 35.7073 96.5966 35.4607 95.4788 34.9681C94.3608 34.4754 93.5029 33.7751 92.9048 32.8674C92.3068 31.9339 92.0078 30.8317 92.0078 29.5609C92.0078 28.3679 92.2808 27.3176 92.8268 26.4099C93.3728 25.4764 94.2047 24.6982 95.3227 24.0758C96.4668 23.4534 97.8836 23.0126 99.5736 22.7533L106.086 21.703V25.982L100.627 26.9546C99.7946 27.1102 99.1575 27.3825 98.7155 27.7715C98.2736 28.1345 98.0526 28.6661 98.0526 29.3664C98.0526 30.0148 98.2996 30.5204 98.7936 30.8836C99.2875 31.2465 99.8985 31.4281 100.627 31.4281C101.588 31.4281 102.434 31.2207 103.161 30.8057C103.889 30.3907 104.448 29.8332 104.838 29.133C105.254 28.4068 105.462 27.6158 105.462 26.7601V21.2362C105.462 20.4322 105.137 19.7579 104.487 19.2134C103.863 18.6687 103.005 18.3965 101.914 18.3965C100.874 18.3965 99.9505 18.6817 99.1446 19.2523C98.3647 19.8229 97.7927 20.5748 97.4287 21.5085L92.7488 19.2911C93.1648 18.0983 93.8279 17.0738 94.7378 16.218C95.6478 15.3622 96.7396 14.7009 98.0136 14.2341C99.2875 13.7673 100.679 13.5339 102.187 13.5339C103.98 13.5339 105.566 13.858 106.944 14.5064C108.322 15.1547 109.388 16.0624 110.142 17.2294C110.922 18.3705 111.312 19.7061 111.312 21.2362V35.2404H105.852V31.8171L107.178 31.5837C106.554 32.5174 105.865 33.2953 105.111 33.9177C104.357 34.5143 103.512 34.9551 102.576 35.2404C101.641 35.5515 100.601 35.7073 99.4565 35.7073Z" fill="white"/>
<path d="M115.602 35.2404V14.0007H121.061V18.202L120.749 17.2683C121.243 15.9976 122.036 15.0639 123.128 14.4675C124.246 13.8451 125.546 13.5339 127.028 13.5339C128.64 13.5339 130.044 13.871 131.24 14.5453C132.462 15.2196 133.411 16.1661 134.087 17.3851C134.763 18.578 135.101 19.9784 135.101 21.5862V35.2404H129.251V22.831C129.251 22.0012 129.082 21.288 128.744 20.6916C128.432 20.095 127.977 19.6284 127.379 19.2911C126.807 18.9539 126.131 18.7855 125.351 18.7855C124.597 18.7855 123.921 18.9539 123.323 19.2911C122.725 19.6284 122.257 20.095 121.919 20.6916C121.607 21.288 121.451 22.0012 121.451 22.831V35.2404H115.602Z" fill="white"/>
<path fill-rule="evenodd" clip-rule="evenodd" d="M0 21C0 9.8481 9.0404 0.807693 20.1923 0.807693C31.3443 0.807693 40.3846 9.8481 40.3846 21C40.3846 32.152 31.3443 41.1923 20.1923 41.1923C9.0404 41.1923 0 32.152 0 21ZM13.0109 18.1056C12.8104 16.5222 13.2581 14.9576 14.2708 13.7011C15.3258 12.3913 16.8368 11.6251 18.4185 11.4477V10.0695C18.4185 9.35232 19.0179 8.77104 19.7576 8.77104C20.4973 8.77104 21.0969 9.35232 21.0969 10.0695V11.719C21.7382 11.9285 22.3543 12.2446 22.9173 12.6711L25.2128 14.4098C25.7958 14.8514 25.899 15.6667 25.4434 16.232C24.9881 16.7973 24.1466 16.8972 23.5641 16.4561L21.2686 14.7174C19.7557 13.5718 17.5634 13.8328 16.3813 15.2992C15.8086 16.0098 15.556 16.894 15.6694 17.7889C15.7828 18.684 16.2485 19.4828 16.9814 20.0377L20.2526 22.5157C20.8356 22.9574 20.9386 23.7731 20.4837 24.3384C20.2194 24.6663 19.8258 24.8372 19.4277 24.8372C19.1396 24.8372 18.8491 24.7475 18.6042 24.5621L15.3331 22.0841C14.0358 21.1018 13.2114 19.6891 13.0109 18.1056ZM21.5185 17.7733L24.6975 20.2511C27.2981 22.2784 27.761 26.04 25.7292 28.6348C24.7036 29.9444 23.2359 30.7106 21.6987 30.8876V32.2657C21.6987 32.9828 21.1161 33.564 20.3975 33.564C19.6786 33.564 19.0961 32.9828 19.0961 32.2657V30.6157C18.4729 30.4064 17.8739 30.0903 17.3273 29.6638L15.0973 27.9252C14.5309 27.4837 14.4301 26.6679 14.8727 26.1027C15.3153 25.5375 16.1328 25.4375 16.6994 25.8791L18.9297 27.6176C19.5468 28.0983 20.2807 28.3314 21.0087 28.3314C22.0154 28.3319 23.0118 27.8865 23.6785 27.0354C24.2345 26.325 24.4803 25.4409 24.3702 24.5458C24.26 23.6508 23.8071 22.852 23.095 22.2973L19.9166 19.8195C19.35 19.3778 19.2499 18.5622 19.6923 17.997C20.1345 17.4318 20.952 17.3318 21.5185 17.7733Z" fill="white"/>
</g>
</g>
</g>
<defs>
<clipPath id="clip0_1_689">
<rect width="135.692" height="42" fill="white"/>
</clipPath>
<clipPath id="clip1_1_689">
<rect width="135.692" height="42" fill="white"/>
</clipPath>
<clipPath id="clip2_1_689">
<rect width="135.692" height="42" fill="white"/>
</clipPath>
</defs>
</svg>
