<svg width="25" height="24" viewBox="0 0 25 24" fill="none" xmlns="http://www.w3.org/2000/svg">
<path d="M20.5781 20.2815H17.0161V14.7581C17.0161 13.4411 16.9924 11.7456 15.1635 11.7456C13.3083 11.7456 13.0244 13.1806 13.0244 14.6622V20.2811H9.46242V8.92291H12.882V10.4751H12.9298C13.272 9.89577 13.7666 9.41916 14.3607 9.09607C14.9548 8.77297 15.6263 8.61549 16.3037 8.64039C19.914 8.64039 20.5796 10.9917 20.5796 14.0505L20.5781 20.2815ZM5.4433 7.37033C5.03447 7.3704 4.63479 7.25043 4.29482 7.0256C3.95485 6.80076 3.68987 6.48115 3.53335 6.10719C3.37683 5.73323 3.33581 5.32171 3.41549 4.92467C3.49518 4.52763 3.69199 4.16291 3.98103 3.87662C4.27006 3.59033 4.63834 3.39533 5.0393 3.31629C5.44026 3.23724 5.85588 3.2777 6.23362 3.43254C6.61136 3.58739 6.93424 3.84966 7.16143 4.1862C7.38863 4.52275 7.50993 4.91844 7.51001 5.32324C7.51006 5.59202 7.45663 5.85818 7.3528 6.10651C7.24896 6.35485 7.09676 6.58051 6.90484 6.7706C6.71293 6.96069 6.48507 7.11149 6.2343 7.21439C5.98353 7.31729 5.71475 7.37028 5.4433 7.37033ZM7.2243 20.2815H3.65858V8.92291H7.2243V20.2815ZM22.3539 0.00162171H1.86868C1.40373 -0.00357365 0.955684 0.174219 0.62305 0.49593C0.290416 0.817642 0.100401 1.25695 0.0947266 1.71732V22.085C0.100207 22.5456 0.29011 22.9852 0.622733 23.3072C0.955356 23.6293 1.4035 23.8074 1.86868 23.8025H22.3539C22.82 23.8083 23.2694 23.6307 23.6034 23.3086C23.9373 22.9866 24.1285 22.5465 24.1349 22.085V1.71586C24.1283 1.25457 23.937 0.814759 23.603 0.493056C23.2691 0.171352 22.8198 -0.00593224 22.3539 0.000151565" fill="#656565"/>
</svg>
