<svg width="12" height="11" viewBox="0 0 12 11" fill="none" xmlns="http://www.w3.org/2000/svg">
<path d="M0 0.5C0 0.223858 0.223858 0 0.5 0H11.1667C11.4428 0 11.6667 0.223859 11.6667 0.500001C11.6667 0.776144 11.4428 1 11.1667 1L0.5 1C0.223858 1 0 0.776142 0 0.5Z" fill="white"/>
<path d="M0 5.16667C0 4.89052 0.223858 4.66667 0.5 4.66667L11.1667 4.66667C11.4428 4.66667 11.6667 4.89053 11.6667 5.16667C11.6667 5.44281 11.4428 5.66667 11.1667 5.66667L0.5 5.66667C0.223858 5.66667 0 5.44281 0 5.16667Z" fill="white"/>
<path d="M0.5 9.33333C0.223858 9.33333 0 9.55719 0 9.83333C0 10.1095 0.223858 10.3333 0.5 10.3333L11.1667 10.3333C11.4428 10.3333 11.6667 10.1095 11.6667 9.83333C11.6667 9.55719 11.4428 9.33333 11.1667 9.33333L0.5 9.33333Z" fill="white"/>
</svg>
