<svg width="136" height="42" viewBox="0 0 136 42" fill="none" xmlns="http://www.w3.org/2000/svg">
<g clip-path="url(#clip0_73_220)">
<g clip-path="url(#clip1_73_220)">
<g clip-path="url(#clip2_73_220)">
<path d="M62.1977 35.7073C60.3776 35.7073 58.6618 35.3831 57.0498 34.7347C55.4639 34.0604 54.086 33.1138 52.916 31.895C51.772 30.676 50.914 29.2367 50.342 27.5771L55.295 25.3597C56.0229 26.9416 57.0238 28.1864 58.2978 29.0941C59.5977 30.0018 61.0276 30.4557 62.5876 30.4557C63.4195 30.4557 64.1345 30.326 64.7325 30.0667C65.3305 29.8073 65.7985 29.4572 66.1365 29.0164C66.4744 28.5496 66.6434 28.005 66.6434 27.3826C66.6434 26.7082 66.4355 26.1378 66.0195 25.6709C65.6035 25.1782 64.9535 24.7891 64.0696 24.5038L58.3758 22.6366C56.0618 21.8846 54.3199 20.8212 53.1501 19.4469C51.98 18.0463 51.3951 16.3738 51.3951 14.4287C51.3951 12.717 51.8111 11.2129 52.643 9.91619C53.5009 8.61949 54.6839 7.60808 56.1918 6.88193C57.7258 6.1558 59.4808 5.79272 61.4567 5.79272C63.1986 5.79272 64.8106 6.09096 66.2925 6.68744C67.7745 7.2839 69.0484 8.12675 70.1143 9.21597C71.2062 10.3052 72.0252 11.6148 72.5712 13.1449L67.6573 15.3623C67.1113 14.0137 66.2925 12.9634 65.2005 12.2113C64.1085 11.4333 62.8606 11.0443 61.4567 11.0443C60.6506 11.0443 59.9356 11.174 59.3118 11.4333C58.6878 11.6926 58.2069 12.0687 57.8688 12.5614C57.5308 13.0282 57.3619 13.5728 57.3619 14.1952C57.3619 14.8695 57.5828 15.466 58.0248 15.9847C58.4668 16.4775 59.1297 16.8664 60.0137 17.1517L65.5905 18.9411C67.9303 19.6932 69.6724 20.7435 70.8162 22.0921C71.9863 23.4406 72.5712 25.0875 72.5712 27.0324C72.5712 28.718 72.1292 30.2223 71.2453 31.545C70.3613 32.8416 69.1393 33.8659 67.5793 34.6181C66.0455 35.3442 64.2515 35.7073 62.1977 35.7073Z" fill="#6355FF"/>
<path d="M86.7074 35.4738C84.1334 35.4738 82.1315 34.7865 80.7016 33.4121C79.2976 32.0116 78.5957 30.0667 78.5957 27.577V19.0578H75.0078V14.0007H75.2028C76.2948 14.0007 78.5957 14.0007 78.5957 14.0007C78.5957 14.0007 78.5957 11.8222 78.5957 10.733V9.177H84.4455V14.0007H89.4372V19.0578H84.4455V27.188C84.4455 27.9142 84.5754 28.5235 84.8355 29.0163C85.0954 29.483 85.4984 29.8332 86.0444 30.0667C86.5904 30.3001 87.2663 30.4167 88.0724 30.4167C88.2543 30.4167 88.4624 30.4038 88.6963 30.3778C88.9303 30.3519 89.1773 30.3259 89.4372 30.3001V35.2404C89.0473 35.2923 88.6053 35.3441 88.1113 35.396C87.6173 35.4478 87.1494 35.4738 86.7074 35.4738Z" fill="#6355FF"/>
<path d="M99.4565 35.7073C97.9225 35.7073 96.5966 35.4608 95.4788 34.9681C94.3608 34.4754 93.5029 33.7752 92.9048 32.8675C92.3068 31.9339 92.0078 30.8318 92.0078 29.5609C92.0078 28.368 92.2808 27.3177 92.8268 26.41C93.3728 25.4764 94.2047 24.6983 95.3227 24.0759C96.4668 23.4535 97.8836 23.0127 99.5736 22.7534L106.086 21.7031V25.9821L100.627 26.9547C99.7946 27.1102 99.1575 27.3826 98.7155 27.7716C98.2736 28.1346 98.0526 28.6662 98.0526 29.3664C98.0526 30.0149 98.2996 30.5205 98.7936 30.8836C99.2875 31.2466 99.8985 31.4282 100.627 31.4282C101.588 31.4282 102.434 31.2207 103.161 30.8058C103.889 30.3908 104.448 29.8333 104.838 29.133C105.254 28.4069 105.462 27.6159 105.462 26.7602V21.2362C105.462 20.4322 105.137 19.758 104.487 19.2134C103.863 18.6687 103.005 18.3965 101.914 18.3965C100.874 18.3965 99.9505 18.6818 99.1446 19.2524C98.3647 19.8229 97.7927 20.5749 97.4287 21.5086L92.7488 19.2911C93.1648 18.0983 93.8279 17.0739 94.7378 16.218C95.6478 15.3623 96.7396 14.701 98.0136 14.2341C99.2875 13.7673 100.679 13.5339 102.187 13.5339C103.98 13.5339 105.566 13.8581 106.944 14.5064C108.322 15.1548 109.388 16.0625 110.142 17.2294C110.922 18.3705 111.312 19.7061 111.312 21.2362V35.2405H105.852V31.8171L107.178 31.5837C106.554 32.5174 105.865 33.2954 105.111 33.9178C104.357 34.5144 103.512 34.9552 102.576 35.2405C101.641 35.5516 100.601 35.7073 99.4565 35.7073Z" fill="#6355FF"/>
<path d="M115.602 35.2405V14.0007H121.061V18.202L120.749 17.2683C121.243 15.9976 122.036 15.064 123.128 14.4675C124.246 13.8451 125.546 13.5339 127.028 13.5339C128.64 13.5339 130.044 13.8711 131.24 14.5453C132.462 15.2196 133.411 16.1662 134.087 17.3851C134.763 18.5781 135.101 19.9785 135.101 21.5863V35.2405H129.251V22.8311C129.251 22.0013 129.082 21.2881 128.744 20.6917C128.432 20.0951 127.977 19.6284 127.379 19.2911C126.807 18.954 126.131 18.7855 125.351 18.7855C124.597 18.7855 123.921 18.954 123.323 19.2911C122.725 19.6284 122.257 20.0951 121.919 20.6917C121.607 21.2881 121.451 22.0013 121.451 22.8311V35.2405H115.602Z" fill="#6355FF"/>
<path fill-rule="evenodd" clip-rule="evenodd" d="M0 20.9999C0 9.84802 9.0404 0.807617 20.1923 0.807617C31.3443 0.807617 40.3846 9.84802 40.3846 20.9999C40.3846 32.1519 31.3443 41.1922 20.1923 41.1922C9.0404 41.1922 0 32.1519 0 20.9999ZM13.0109 18.1055C12.8104 16.5221 13.2581 14.9575 14.2708 13.7011C15.3258 12.3913 16.8368 11.625 18.4185 11.4476V10.0694C18.4185 9.35224 19.0179 8.77096 19.7576 8.77096C20.4973 8.77096 21.0969 9.35224 21.0969 10.0694V11.7189C21.7382 11.9284 22.3543 12.2445 22.9173 12.6711L25.2128 14.4097C25.7958 14.8514 25.899 15.6667 25.4434 16.232C24.9881 16.7972 24.1466 16.8972 23.5641 16.456L21.2686 14.7174C19.7557 13.5718 17.5634 13.8327 16.3813 15.2991C15.8086 16.0097 15.556 16.8939 15.6694 17.7889C15.7828 18.6839 16.2485 19.4828 16.9814 20.0376L20.2526 22.5156C20.8356 22.9573 20.9386 23.7731 20.4837 24.3383C20.2194 24.6662 19.8258 24.8371 19.4277 24.8371C19.1396 24.8371 18.8491 24.7475 18.6042 24.562L15.3331 22.084C14.0358 21.1017 13.2114 19.689 13.0109 18.1055ZM21.5185 17.7732L24.6975 20.251C27.2981 22.2783 27.761 26.0399 25.7292 28.6347C24.7036 29.9443 23.2359 30.7105 21.6987 30.8875V32.2656C21.6987 32.9827 21.1161 33.5639 20.3975 33.5639C19.6786 33.5639 19.0961 32.9827 19.0961 32.2656V30.6157C18.4729 30.4063 17.8739 30.0902 17.3273 29.6637L15.0973 27.9251C14.5309 27.4836 14.4301 26.6678 14.8727 26.1026C15.3153 25.5374 16.1328 25.4374 16.6994 25.879L18.9297 27.6175C19.5468 28.0982 20.2807 28.3313 21.0087 28.3313C22.0154 28.3318 23.0118 27.8865 23.6785 27.0353C24.2345 26.3249 24.4803 25.4408 24.3702 24.5457C24.26 23.6508 23.8071 22.852 23.095 22.2972L19.9166 19.8194C19.35 19.3778 19.2499 18.5621 19.6923 17.9969C20.1345 17.4317 20.952 17.3317 21.5185 17.7732Z" fill="#6355FF"/>
</g>
</g>
</g>
<defs>
<clipPath id="clip0_73_220">
<rect width="135.692" height="42" fill="white"/>
</clipPath>
<clipPath id="clip1_73_220">
<rect width="135.692" height="42" fill="white"/>
</clipPath>
<clipPath id="clip2_73_220">
<rect width="135.692" height="42" fill="white"/>
</clipPath>
</defs>
</svg>
