<svg width="20" height="20" viewBox="0 0 20 20" fill="none" xmlns="http://www.w3.org/2000/svg">
<path fill-rule="evenodd" clip-rule="evenodd" d="M0 10C0 4.47715 4.47715 0 10 0C15.5229 0 20 4.47715 20 10C20 15.5229 15.5229 20 10 20C4.47715 20 0 15.5229 0 10ZM6.4435 8.56656C6.34421 7.7824 6.56593 7.00757 7.06745 6.38532C7.58994 5.73666 8.33824 5.35719 9.12152 5.26934V4.5868C9.12152 4.23162 9.4184 3.94375 9.78472 3.94375C10.151 3.94375 10.448 4.23162 10.448 4.5868V5.40369C10.7656 5.50744 11.0707 5.66399 11.3495 5.87523L12.4863 6.73629C12.775 6.955 12.8262 7.35877 12.6006 7.63872C12.375 7.91864 11.9583 7.96816 11.6698 7.74968L10.533 6.88863C9.78376 6.3213 8.69808 6.45051 8.11264 7.17674C7.82902 7.52865 7.70394 7.96656 7.76009 8.40976C7.81624 8.85304 8.04688 9.24864 8.40984 9.52344L10.0298 10.7506C10.3186 10.9694 10.3696 11.3734 10.1443 11.6533C10.0134 11.8157 9.81848 11.9003 9.62136 11.9003C9.47864 11.9003 9.3348 11.8559 9.21352 11.7641L7.59355 10.5369C6.95105 10.0504 6.54279 9.3508 6.4435 8.56656ZM10.6568 8.402L12.2311 9.62912C13.519 10.6331 13.7483 12.496 12.7421 13.781C12.2342 14.4296 11.5073 14.809 10.746 14.8967V15.5792C10.746 15.9343 10.4575 16.2222 10.1016 16.2222C9.7456 16.2222 9.45712 15.9343 9.45712 15.5792V14.7621C9.14848 14.6584 8.85184 14.5018 8.58112 14.2906L7.47677 13.4296C7.19623 13.211 7.14635 12.807 7.36554 12.527C7.58472 12.2471 7.9896 12.1976 8.27016 12.4163L9.37472 13.2773C9.68032 13.5154 10.0438 13.6308 10.4043 13.6308C10.9029 13.631 11.3963 13.4105 11.7265 12.989C12.0018 12.6371 12.1236 12.1993 12.069 11.756C12.0145 11.3128 11.7902 10.9172 11.4375 10.6425L9.86344 9.41536C9.58288 9.19664 9.53328 8.79272 9.7524 8.5128C9.97136 8.23288 10.3762 8.18336 10.6568 8.402Z" fill="#7E7F8A"/>
</svg>
